<svg id="Capa_1" enable-background="new 0 0 511.994 511.994" height="60" viewBox="0 0 511.994 511.994" width="512" xmlns="http://www.w3.org/2000/svg"><g><g><g><path d="m47.477 247.602c-32.46 12.79-52.62 47.12-46.33 82.79l15.63 88.63c6.29 35.68 36.97 61.04 71.85 61.96zm122.23 174.92-26.05-147.72c-4.32-24.5-27.64-40.82-52.13-36.5l-14.77 2.61 41.67 236.35 14.78-2.61c24.43-4.31 40.81-27.69 36.5-52.13z"/></g></g><g><g><path d="m211.354 417.758 25.004-112.521-52.42 10.484c-13.124 2.626-22.884-12.043-15.351-23.136 43.311-63.775 113.807-168.367 118.68-177.656 7.698-15.299 32.412-8.154 27.679 11.587-2.611 10.892-20.822 83.804-23.653 95.14l51.761-10.352c12.815-2.562 22.574 11.428 15.717 22.57l-120 195c-8.808 14.314-31.083 5.379-27.417-11.116z"/></g></g><g><g><path d="m412.567 237.602c-21.43 0-40.38 15.36-44.23 37.2l-26.05 147.72c-4.31 24.44 12.07 47.82 36.5 52.13l14.78 2.61 41.67-236.36c-13.071-2.15-16.413-3.3-22.67-3.3zm51.96 10-41.16 233.38c34.88-.92 65.56-26.29 71.85-61.96l15.63-88.63c6.29-35.67-13.86-69.99-46.32-82.79z"/></g></g><g><g><path d="m507.567 239.672c-16.645-15.194-34.362-20.737-36.1-21.59-28.99-90.97-114.62-157.07-215.47-157.07-110.27 0-187.36 72.88-214.87 156.85-2.686 1.311-19.377 6.03-36.68 21.79 22.277-116.212 122.573-208.64 251.55-208.64 127.981 0 229.17 91.767 251.57 208.66z"/></g></g></g></svg>