<svg id="Capa_1" enable-background="new 0 0 512 512" height="512" viewBox="0 0 512 512" width="512" xmlns="http://www.w3.org/2000/svg"><g><g><path d="m205 0c-113.218 0-205 91.782-205 205s91.782 205 205 205 205-91.782 205-205-91.782-205-205-205zm0 270c-35.841 0-65-29.158-65-65s29.159-65 65-65 65 29.158 65 65-29.159 65-65 65z" fill="#0d8ebc"/><g><path d="m270 205c0 35.842-29.159 65-65 65v140c113.218 0 205-91.782 205-205s-91.782-205-205-205v140c35.841 0 65 29.158 65 65z" fill="#0a617d"/><path d="m205 100c-57.897 0-105 47.103-105 105s47.103 105 105 105 105-47.103 105-105-47.103-105-105-105zm0 150c-24.813 0-45-20.187-45-45s20.187-45 45-45 45 20.187 45 45-20.187 45-45 45z" fill="#f9f9f9"/><path d="m205 160c24.813 0 45 20.187 45 45s-20.187 45-45 45v60c57.897 0 105-47.103 105-105s-47.103-105-105-105z" fill="#d5d3ea"/></g></g><path d="m506.231 235.177c-3.641-2.843-8.389-3.85-12.869-2.729l-160 40c-6.677 1.669-11.362 7.669-11.362 14.552v146.266c-3.197-.826-6.548-1.266-10-1.266-22.056 0-40 17.944-40 40s17.944 40 40 40 40-17.944 40-40v-123.289l130-32.5v97.055c-3.197-.826-6.548-1.266-10-1.266-22.056 0-40 17.944-40 40s17.944 40 40 40 40-17.944 40-40v-205c0-4.619-2.128-8.98-5.769-11.823z" fill="#ff6b6b"/><g><path d="m506.231 235.177c-3.641-2.843-8.389-3.85-12.869-2.729l-80 20v80.922l68.638-17.159v97.055c-3.197-.826-6.548-1.266-10-1.266-22.056 0-40 17.944-40 40s17.944 40 40 40 40-17.944 40-40v-205c0-4.619-2.128-8.98-5.769-11.823z" fill="#ec3d93"/></g></g></svg>